<?xml version="1.0" encoding="UTF-8" standalone="no"?>
<!DOCTYPE svg PUBLIC "-//W3C//DTD SVG 1.1//EN"
 "http://www.w3.org/Graphics/SVG/1.1/DTD/svg11.dtd">
<!-- Generated by graphviz version 2.43.0 (0)
 -->
<!-- Title: XelaSidecarAH Pages: 1 -->
<svg width="1264pt" height="396pt"
 viewBox="0.00 0.00 1263.50 396.00" xmlns="http://www.w3.org/2000/svg" xmlns:xlink="http://www.w3.org/1999/xlink">
<g id="graph0" class="graph" transform="scale(1 1) rotate(0) translate(4 392)">
<title>XelaSidecarAH</title>
<polygon fill="white" stroke="transparent" points="-4,4 -4,-392 1259.5,-392 1259.5,4 -4,4"/>
<text text-anchor="middle" x="627.75" y="-375.2" font-family="Helvetica,sans-Serif" font-size="11.00">xela_taxel_sidecar_ah &#45; Runtime Architecture</text>
<g id="clust1" class="cluster">
<title>cluster_upstream</title>
<path fill="white" stroke="#cbd5e1" d="M291,-228C291,-228 897,-228 897,-228 903,-228 909,-234 909,-240 909,-240 909,-348 909,-348 909,-354 903,-360 897,-360 897,-360 291,-360 291,-360 285,-360 279,-354 279,-348 279,-348 279,-240 279,-240 279,-234 285,-228 291,-228"/>
<text text-anchor="middle" x="594" y="-347.2" font-family="Helvetica,sans-Serif" font-size="11.00">Upstream / Core ROS2</text>
</g>
<g id="clust2" class="cluster">
<title>cluster_sidecar</title>
<path fill="white" stroke="#cbd5e1" d="M242.5,-8C242.5,-8 1235.5,-8 1235.5,-8 1241.5,-8 1247.5,-14 1247.5,-20 1247.5,-20 1247.5,-128 1247.5,-128 1247.5,-134 1241.5,-140 1235.5,-140 1235.5,-140 242.5,-140 242.5,-140 236.5,-140 230.5,-134 230.5,-128 230.5,-128 230.5,-20 230.5,-20 230.5,-14 236.5,-8 242.5,-8"/>
<text text-anchor="middle" x="739" y="-127.2" font-family="Helvetica,sans-Serif" font-size="11.00">xela_taxel_sidecar_ah</text>
</g>
<g id="clust3" class="cluster">
<title>cluster_web</title>
<path fill="white" stroke="#cbd5e1" d="M748,-148C748,-148 932,-148 932,-148 938,-148 944,-154 944,-160 944,-160 944,-208 944,-208 944,-214 938,-220 932,-220 932,-220 748,-220 748,-220 742,-220 736,-214 736,-208 736,-208 736,-160 736,-160 736,-154 742,-148 748,-148"/>
<text text-anchor="middle" x="840" y="-207.2" font-family="Helvetica,sans-Serif" font-size="11.00">Browser</text>
</g>
<!-- sim_server -->
<g id="node1" class="node">
<title>sim_server</title>
<path fill="#eef2ff" stroke="#334155" d="M395.5,-332C395.5,-332 315.5,-332 315.5,-332 309.5,-332 303.5,-326 303.5,-320 303.5,-320 303.5,-308 303.5,-308 303.5,-302 309.5,-296 315.5,-296 315.5,-296 395.5,-296 395.5,-296 401.5,-296 407.5,-302 407.5,-308 407.5,-308 407.5,-320 407.5,-320 407.5,-326 401.5,-332 395.5,-332"/>
<text text-anchor="middle" x="355.5" y="-317" font-family="Helvetica,sans-Serif" font-size="10.00">sim_xela_server</text>
<text text-anchor="middle" x="355.5" y="-306" font-family="Helvetica,sans-Serif" font-size="10.00">(WebSocket JSON)</text>
</g>
<!-- ah_server -->
<g id="node2" class="node">
<title>ah_server</title>
<path fill="#eef2ff" stroke="#334155" d="M889,-272C889,-272 791,-272 791,-272 785,-272 779,-266 779,-260 779,-260 779,-248 779,-248 779,-242 785,-236 791,-236 791,-236 889,-236 889,-236 895,-236 901,-242 901,-248 901,-248 901,-260 901,-260 901,-266 895,-272 889,-272"/>
<text text-anchor="middle" x="840" y="-257" font-family="Helvetica,sans-Serif" font-size="10.00">xela_server2_ah</text>
<text text-anchor="middle" x="840" y="-246" font-family="Helvetica,sans-Serif" font-size="10.00">Publishes /x_taxel_ah</text>
</g>
<!-- sim_server&#45;&gt;ah_server -->
<g id="edge1" class="edge">
<title>sim_server&#45;&gt;ah_server</title>
<path fill="none" stroke="#475569" d="M407.68,-307.64C495.08,-296.77 673.12,-274.63 770.91,-262.47"/>
<polygon fill="#475569" stroke="#475569" points="771.37,-265.23 778.97,-261.47 770.68,-259.67 771.37,-265.23"/>
<text text-anchor="middle" x="606.5" y="-298.8" font-family="Helvetica,sans-Serif" font-size="9.00">ws://host:port</text>
</g>
<!-- bridge -->
<g id="node4" class="node">
<title>bridge</title>
<path fill="#ecfeff" stroke="#334155" d="M927.5,-112C927.5,-112 752.5,-112 752.5,-112 746.5,-112 740.5,-106 740.5,-100 740.5,-100 740.5,-72 740.5,-72 740.5,-66 746.5,-60 752.5,-60 752.5,-60 927.5,-60 927.5,-60 933.5,-60 939.5,-66 939.5,-72 939.5,-72 939.5,-100 939.5,-100 939.5,-106 933.5,-112 927.5,-112"/>
<text text-anchor="middle" x="840" y="-100" font-family="Helvetica,sans-Serif" font-size="10.00">xela_taxel_web_bridge_node</text>
<text text-anchor="middle" x="840" y="-89" font-family="Helvetica,sans-Serif" font-size="10.00">C++</text>
<text text-anchor="middle" x="840" y="-78" font-family="Helvetica,sans-Serif" font-size="10.00">/x_taxel_ah &#45;&gt; /x_taxel_ah/web_state</text>
<text text-anchor="middle" x="840" y="-67" font-family="Helvetica,sans-Serif" font-size="10.00">(mapping + pattern + baseline)</text>
</g>
<!-- ah_server&#45;&gt;bridge -->
<g id="edge3" class="edge">
<title>ah_server&#45;&gt;bridge</title>
<path fill="none" stroke="#475569" d="M778.94,-245.5C691.21,-230.81 545.73,-195.75 600.5,-130 632.03,-92.16 684.46,-79.64 732.25,-77.25"/>
<polygon fill="#475569" stroke="#475569" points="732.6,-80.03 740.49,-76.93 732.39,-74.44 732.6,-80.03"/>
<text text-anchor="middle" x="606.5" y="-142.8" font-family="Helvetica,sans-Serif" font-size="9.00">/x_taxel_ah</text>
<text text-anchor="middle" x="606.5" y="-132.8" font-family="Helvetica,sans-Serif" font-size="9.00">XTaxelSensorTArray</text>
</g>
<!-- std_viz -->
<g id="node3" class="node">
<title>std_viz</title>
<path fill="#eef2ff" stroke="#334155" d="M412,-277.5C412,-277.5 299,-277.5 299,-277.5 293,-277.5 287,-271.5 287,-265.5 287,-265.5 287,-248.5 287,-248.5 287,-242.5 293,-236.5 299,-236.5 299,-236.5 412,-236.5 412,-236.5 418,-236.5 424,-242.5 424,-248.5 424,-248.5 424,-265.5 424,-265.5 424,-271.5 418,-277.5 412,-277.5"/>
<text text-anchor="middle" x="355.5" y="-265.5" font-family="Helvetica,sans-Serif" font-size="10.00">std_xela_taxel_viz_ahv4</text>
<text text-anchor="middle" x="355.5" y="-254.5" font-family="Helvetica,sans-Serif" font-size="10.00">/&lt;ns&gt;/robot_description</text>
<text text-anchor="middle" x="355.5" y="-243.5" font-family="Helvetica,sans-Serif" font-size="10.00">/&lt;ns&gt;/tf, /&lt;ns&gt;/tf_static</text>
</g>
<!-- ui -->
<g id="node8" class="node">
<title>ui</title>
<path fill="#f0fdf4" stroke="#334155" d="M924,-192C924,-192 756,-192 756,-192 750,-192 744,-186 744,-180 744,-180 744,-168 744,-168 744,-162 750,-156 756,-156 756,-156 924,-156 924,-156 930,-156 936,-162 936,-168 936,-168 936,-180 936,-180 936,-186 930,-192 924,-192"/>
<text text-anchor="middle" x="840" y="-177" font-family="Helvetica,sans-Serif" font-size="10.00">taxel_sidecar/index.html</text>
<text text-anchor="middle" x="840" y="-166" font-family="Helvetica,sans-Serif" font-size="10.00">GridMode / XelaModel / RobotModel</text>
</g>
<!-- std_viz&#45;&gt;ui -->
<g id="edge7" class="edge">
<title>std_viz&#45;&gt;ui</title>
<path fill="none" stroke="#0f766e" stroke-dasharray="5,2" d="M424.1,-245.37C504.99,-231.46 641.31,-208.01 735.49,-191.81"/>
<polygon fill="#0f766e" stroke="#0f766e" points="736.21,-194.52 743.62,-190.41 735.26,-189 736.21,-194.52"/>
<text text-anchor="middle" x="606.5" y="-244.8" font-family="Helvetica,sans-Serif" font-size="9.00">XelaModel source</text>
<text text-anchor="middle" x="606.5" y="-234.8" font-family="Helvetica,sans-Serif" font-size="9.00">robot_description + tf</text>
</g>
<!-- rb -->
<g id="node7" class="node">
<title>rb</title>
<path fill="#ecfeff" stroke="#334155" d="M1227.5,-110C1227.5,-110 1091.5,-110 1091.5,-110 1085.5,-110 1079.5,-104 1079.5,-98 1079.5,-98 1079.5,-86 1079.5,-86 1079.5,-80 1085.5,-74 1091.5,-74 1091.5,-74 1227.5,-74 1227.5,-74 1233.5,-74 1239.5,-80 1239.5,-86 1239.5,-86 1239.5,-98 1239.5,-98 1239.5,-104 1233.5,-110 1227.5,-110"/>
<text text-anchor="middle" x="1159.5" y="-95" font-family="Helvetica,sans-Serif" font-size="10.00">rosbridge_websocket_sidecar</text>
<text text-anchor="middle" x="1159.5" y="-84" font-family="Helvetica,sans-Serif" font-size="10.00">Optional (:9090)</text>
</g>
<!-- bridge&#45;&gt;rb -->
<g id="edge4" class="edge">
<title>bridge&#45;&gt;rb</title>
<path fill="none" stroke="#475569" d="M939.72,-87.87C981.87,-88.66 1030.65,-89.58 1071.43,-90.35"/>
<polygon fill="#475569" stroke="#475569" points="1071.43,-93.15 1079.48,-90.51 1071.53,-87.56 1071.43,-93.15"/>
<text text-anchor="middle" x="1009.5" y="-102.8" font-family="Helvetica,sans-Serif" font-size="9.00">/x_taxel_ah/web_state</text>
<text text-anchor="middle" x="1009.5" y="-92.8" font-family="Helvetica,sans-Serif" font-size="9.00">std_msgs/String(JSON)</text>
</g>
<!-- mode_mgr -->
<g id="node5" class="node">
<title>mode_mgr</title>
<path fill="#ecfeff" stroke="#334155" d="M460.5,-57.5C460.5,-57.5 250.5,-57.5 250.5,-57.5 244.5,-57.5 238.5,-51.5 238.5,-45.5 238.5,-45.5 238.5,-28.5 238.5,-28.5 238.5,-22.5 244.5,-16.5 250.5,-16.5 250.5,-16.5 460.5,-16.5 460.5,-16.5 466.5,-16.5 472.5,-22.5 472.5,-28.5 472.5,-28.5 472.5,-45.5 472.5,-45.5 472.5,-51.5 466.5,-57.5 460.5,-57.5"/>
<text text-anchor="middle" x="355.5" y="-45.5" font-family="Helvetica,sans-Serif" font-size="10.00">xela_viz_mode_manager_node</text>
<text text-anchor="middle" x="355.5" y="-34.5" font-family="Helvetica,sans-Serif" font-size="10.00">C++</text>
<text text-anchor="middle" x="355.5" y="-23.5" font-family="Helvetica,sans-Serif" font-size="10.00">Service: /xela_viz_mode_manager/set_mode</text>
</g>
<!-- mode_mgr&#45;&gt;std_viz -->
<g id="edge9" class="edge">
<title>mode_mgr&#45;&gt;std_viz</title>
<path fill="none" stroke="#64748b" stroke-dasharray="5,2" d="M238.22,-49.5C180.34,-62.48 116.08,-88.8 83.5,-142 36.41,-218.89 182.4,-244.41 278.4,-252.85"/>
<polygon fill="#64748b" stroke="#64748b" points="278.46,-255.67 286.66,-253.55 278.93,-250.09 278.46,-255.67"/>
<text text-anchor="middle" x="133" y="-144.8" font-family="Helvetica,sans-Serif" font-size="9.00">Optional /&lt;viz_node_name&gt;/set_mode</text>
</g>
<!-- mode_mgr&#45;&gt;bridge -->
<g id="edge2" class="edge">
<title>mode_mgr&#45;&gt;bridge</title>
<path fill="none" stroke="#475569" d="M472.65,-33.97C544.98,-33.92 639.7,-37.21 722.5,-51 732.98,-52.74 743.83,-55.16 754.52,-57.9"/>
<polygon fill="#475569" stroke="#475569" points="753.81,-60.61 762.26,-59.96 755.24,-55.2 753.81,-60.61"/>
<text text-anchor="middle" x="606.5" y="-63.8" font-family="Helvetica,sans-Serif" font-size="9.00">set_parameters</text>
<text text-anchor="middle" x="606.5" y="-53.8" font-family="Helvetica,sans-Serif" font-size="9.00">(viz_mode, emit_urdf_points, freeze_urdf_positions)</text>
</g>
<!-- httpd -->
<g id="node6" class="node">
<title>httpd</title>
<path fill="#ecfeff" stroke="#334155" d="M413,-112C413,-112 298,-112 298,-112 292,-112 286,-106 286,-100 286,-100 286,-88 286,-88 286,-82 292,-76 298,-76 298,-76 413,-76 413,-76 419,-76 425,-82 425,-88 425,-88 425,-100 425,-100 425,-106 419,-112 413,-112"/>
<text text-anchor="middle" x="355.5" y="-97" font-family="Helvetica,sans-Serif" font-size="10.00">sidecar_http_server.py</text>
<text text-anchor="middle" x="355.5" y="-86" font-family="Helvetica,sans-Serif" font-size="10.00">Static web server (:8765)</text>
</g>
<!-- httpd&#45;&gt;ui -->
<g id="edge6" class="edge">
<title>httpd&#45;&gt;ui</title>
<path fill="none" stroke="#475569" d="M390.12,-112.06C416.59,-125.34 454.84,-142.5 490.5,-151 535.35,-161.69 649.92,-167.8 735.54,-170.99"/>
<polygon fill="#475569" stroke="#475569" points="735.63,-173.8 743.73,-171.29 735.84,-168.2 735.63,-173.8"/>
<text text-anchor="middle" x="606.5" y="-172.8" font-family="Helvetica,sans-Serif" font-size="9.00">HTTP static assets</text>
</g>
<!-- rb&#45;&gt;ui -->
<g id="edge5" class="edge">
<title>rb&#45;&gt;ui</title>
<path fill="none" stroke="#475569" d="M1088.61,-110.05C1038.45,-123 970.83,-140.47 918.93,-153.87"/>
<polygon fill="#475569" stroke="#475569" points="918.12,-151.19 911.07,-155.9 919.52,-156.61 918.12,-151.19"/>
<text text-anchor="middle" x="1009.5" y="-144.8" font-family="Helvetica,sans-Serif" font-size="9.00">rosbridge websocket</text>
</g>
<!-- ui&#45;&gt;mode_mgr -->
<g id="edge8" class="edge">
<title>ui&#45;&gt;mode_mgr</title>
<path fill="none" stroke="#0369a1" d="M752.34,-155.81C746.42,-152.5 740.88,-148.6 736,-144 722.96,-131.7 736.33,-117.4 722.5,-106 682.27,-72.83 541.61,-81.31 490.5,-71 480.53,-68.99 462.48,-64.58 442.78,-59.59"/>
<polygon fill="#0369a1" stroke="#0369a1" points="443.31,-56.83 434.87,-57.57 441.93,-62.26 443.31,-56.83"/>
<text text-anchor="middle" x="606.5" y="-118.8" font-family="Helvetica,sans-Serif" font-size="9.00">Service call</text>
<text text-anchor="middle" x="606.5" y="-108.8" font-family="Helvetica,sans-Serif" font-size="9.00">/xela_viz_mode_manager/set_mode</text>
</g>
</g>
</svg>
